# ProBuilder 4.2.3
# https://unity3d.com/unity/features/worldbuilding/probuilder
# 2020/12/09 12:54:40

mtllib ./Stairs_(3).mtl
o Stairs (3)

g Stairs (3)
v 0 0 0
v 2.116979 0 0
v 0 0.25 0
v 2.116979 0.25 0
v 1.866536 0.25 1.581233
v -0.1468303 0.25 0.927051
v -0.1468303 0.5 0.927051
v 1.866536 0.5 1.581233
v 1.139723 0.5 3.007684
v -0.5729489 0.5 1.763356
v -0.5729489 0.75 1.763356
v 1.139723 0.75 3.007684
v 0.007684469 0.75 4.139723
v -1.236644 0.75 2.427051
v -1.236644 1 2.427051
v 0.007684469 1 4.139723
v -1.418767 1 4.866536
v -2.072949 1 2.85317
v -2.072949 1.25 2.85317
v -1.418767 1.25 4.866536
v -3 1.25 5.116979
v -3 1.25 3
v -3 1.5 3
v -3 1.5 5.116979
v -4.581234 1.5 4.866536
v -3.927051 1.5 2.853169
v -3.927051 1.75 2.853169
v -4.581234 1.75 4.866536
v -6.007684 1.75 4.139723
v -4.763355 1.75 2.427051
v -4.763355 2 2.427051
v -6.007684 2 4.139723
v -7.139723 2 3.007684
v -5.427051 2 1.763355
v -5.427051 2.25 1.763355
v -7.139723 2.25 3.007684
v -7.866536 2.25 1.581232
v -5.85317 2.25 0.9270504
v -5.85317 2.5 0.9270504
v -7.866536 2.5 1.581232
v -8.116979 2.5 -4.473405E-07
v -6 2.5 -2.622683E-07
v -6 2.75 -2.622683E-07
v -8.116979 2.75 -4.473405E-07
v -7.866535 2.75 -1.581234
v -5.853169 2.75 -0.9270517
v -5.853169 3 -0.9270517
v -7.866535 3 -1.581234
v -7.139722 3 -3.007685
v -5.427051 3 -1.763356
v -5.427051 3.25 -1.763356
v -7.139722 3.25 -3.007685
v -6.007684 3.25 -4.139723
v -4.763355 3.25 -2.427051
v -4.763355 3.5 -2.427051
v -6.007684 3.5 -4.139723
v -4.581234 3.5 -4.866536
v -3.927051 3.5 -2.853169
v -3.927051 3.75 -2.853169
v -4.581234 3.75 -4.866536
v -3 3.75 -5.116979
v -3 3.75 -3
v -3 4 -3
v -3 4 -5.116979
v -1.418766 4 -4.866536
v -2.072949 4 -2.853169
v -2.072949 4.25 -2.853169
v -1.418766 4.25 -4.866536
v 0.007685661 4.25 -4.139722
v -1.236644 4.25 -2.427051
v -1.236644 4.5 -2.427051
v 0.007685661 4.5 -4.139722
v 1.139724 4.5 -3.007683
v -0.5729482 4.5 -1.763355
v -0.5729482 4.75 -1.763355
v 1.139724 4.75 -3.007683
v 1.866536 4.75 -1.581233
v -0.1468303 4.75 -0.9270508
v -0.1468303 5 -0.9270508
v 1.866536 5 -1.581233
v 2.116979 5 8.94681E-07
v 0 5 5.245366E-07
v 0 -5 0
v 2.116978 -5 1.430511E-06
v 0 -4.75 0
v 2.116978 -4.75 1.430511E-06
v 1.866536 -4.75 1.581233
v -0.1468317 -4.75 0.9270513
v -0.1468317 -4.5 0.9270513
v 1.866536 -4.5 1.581233
v 1.139723 -4.5 3.007684
v -0.5729494 -4.5 1.763357
v -0.5729494 -4.25 1.763357
v 1.139723 -4.25 3.007684
v 0.0076859 -4.25 4.139722
v -1.236644 -4.25 2.42705
v -1.236644 -4 2.42705
v 0.0076859 -4 4.139722
v -1.418768 -4 4.866537
v -2.072949 -4 2.853168
v -2.072949 -3.75 2.853168
v -1.418768 -3.75 4.866537
v -3 -3.75 5.11698
v -3 -3.75 3
v -3 -3.5 3
v -3 -3.5 5.11698
v -4.581235 -3.5 4.866537
v -3.927053 -3.5 2.853169
v -3.927053 -3.25 2.853169
v -4.581235 -3.25 4.866537
v -6.007686 -3.25 4.139724
v -4.763356 -3.25 2.427052
v -4.763356 -3 2.427052
v -6.007686 -3 4.139724
v -7.139726 -3 3.007685
v -5.42705 -3 1.763355
v -5.42705 -2.75 1.763355
v -7.139726 -2.75 3.007685
v -7.866537 -2.75 1.581233
v -5.85317 -2.75 0.9270492
v -5.85317 -2.5 0.9270492
v -7.866537 -2.5 1.581233
v -8.11698 -2.5 -9.536743E-07
v -6.000001 -2.5 0
v -6.000001 -2.25 0
v -8.11698 -2.25 -9.536743E-07
v -7.866535 -2.25 -1.581237
v -5.85317 -2.25 -0.9270525
v -5.85317 -2 -0.9270525
v -7.866535 -2 -1.581237
v -7.139725 -2 -3.007685
v -5.427052 -2 -1.763356
v -5.427052 -1.75 -1.763356
v -7.139725 -1.75 -3.007685
v -6.007683 -1.75 -4.139722
v -4.763354 -1.75 -2.427052
v -4.763354 -1.5 -2.427052
v -6.007683 -1.5 -4.139722
v -4.581236 -1.5 -4.866535
v -3.927052 -1.5 -2.853168
v -3.927052 -1.25 -2.853168
v -4.581236 -1.25 -4.866535
v -3.000001 -1.25 -5.116978
v -3.000001 -1.25 -2.999999
v -3.000001 -1 -2.999999
v -3.000001 -1 -5.116978
v -1.418766 -1 -4.866536
v -2.072949 -1 -2.85317
v -2.072949 -0.75 -2.85317
v -1.418766 -0.75 -4.866536
v 0.007685423 -0.75 -4.139721
v -1.236645 -0.75 -2.427049
v -1.236645 -0.5 -2.427049
v 0.007685423 -0.5 -4.139721
v 1.139724 -0.5 -3.007685
v -0.5729494 -0.5 -1.763353
v -0.5729494 -0.25 -1.763353
v 1.139724 -0.25 -3.007685
v 1.866535 -0.25 -1.581232
v -0.1468294 -0.25 -0.9270526
v -0.1468294 0 -0.9270526
v 1.866535 0 -1.581232
v 0 -10 0
v 2.116978 -10 1.430511E-06
v 0 -9.75 0
v 2.116978 -9.75 1.430511E-06
v 1.866536 -9.75 1.581233
v -0.1468317 -9.75 0.9270513
v -0.1468317 -9.5 0.9270513
v 1.866536 -9.5 1.581233
v 1.139723 -9.5 3.007684
v -0.5729494 -9.5 1.763357
v -0.5729494 -9.25 1.763357
v 1.139723 -9.25 3.007684
v 0.0076859 -9.25 4.139722
v -1.236644 -9.25 2.42705
v -1.236644 -9 2.42705
v 0.0076859 -9 4.139722
v -1.418768 -9 4.866537
v -2.072949 -9 2.853168
v -2.072949 -8.75 2.853168
v -1.418768 -8.75 4.866537
v -3 -8.75 5.11698
v -3 -8.75 3
v -3 -8.5 3
v -3 -8.5 5.11698
v -4.581235 -8.5 4.866537
v -3.927053 -8.5 2.853169
v -3.927053 -8.25 2.853169
v -4.581235 -8.25 4.866537
v -6.007686 -8.25 4.139724
v -4.763356 -8.25 2.427052
v -4.763356 -8 2.427052
v -6.007686 -8 4.139724
v -7.139726 -8 3.007685
v -5.42705 -8 1.763355
v -5.42705 -7.75 1.763355
v -7.139726 -7.75 3.007685
v -7.866537 -7.75 1.581233
v -5.85317 -7.75 0.9270492
v -5.85317 -7.5 0.9270492
v -7.866537 -7.5 1.581233
v -8.11698 -7.5 -9.536743E-07
v -6.000001 -7.5 0
v -6.000001 -7.25 0
v -8.11698 -7.25 -9.536743E-07
v -7.866535 -7.25 -1.581237
v -5.85317 -7.25 -0.9270525
v -5.85317 -7 -0.9270525
v -7.866535 -7 -1.581237
v -7.139725 -7 -3.007685
v -5.427052 -7 -1.763356
v -5.427052 -6.75 -1.763356
v -7.139725 -6.75 -3.007685
v -6.007683 -6.75 -4.139722
v -4.763354 -6.75 -2.427052
v -4.763354 -6.5 -2.427052
v -6.007683 -6.5 -4.139722
v -4.581236 -6.5 -4.866535
v -3.927052 -6.5 -2.853168
v -3.927052 -6.25 -2.853168
v -4.581236 -6.25 -4.866535
v -3.000001 -6.25 -5.116978
v -3.000001 -6.25 -2.999999
v -3.000001 -6 -2.999999
v -3.000001 -6 -5.116978
v -1.418766 -6 -4.866536
v -2.072949 -6 -2.85317
v -2.072949 -5.75 -2.85317
v -1.418766 -5.75 -4.866536
v 0.007685423 -5.75 -4.139721
v -1.236645 -5.75 -2.427049
v -1.236645 -5.5 -2.427049
v 0.007685423 -5.5 -4.139721
v 1.139724 -5.5 -3.007685
v -0.5729494 -5.5 -1.763353
v -0.5729494 -5.25 -1.763353
v 1.139724 -5.25 -3.007685
v 1.866535 -5.25 -1.581232
v -0.1468294 -5.25 -0.9270526
v -0.1468294 -5 -0.9270526
v 1.866535 -5 -1.581232
v 0 -15.04 0
v 2.116978 -15.04 1.430511E-06
v 0 -14.79 0
v 2.116978 -14.79 1.430511E-06
v 1.866536 -14.79 1.581233
v -0.1468317 -14.79 0.9270513
v -0.1468317 -14.54 0.9270513
v 1.866536 -14.54 1.581233
v 1.139723 -14.54 3.007684
v -0.5729494 -14.54 1.763357
v -0.5729494 -14.29 1.763357
v 1.139723 -14.29 3.007684
v 0.0076859 -14.29 4.139722
v -1.236644 -14.29 2.42705
v -1.236644 -14.04 2.42705
v 0.0076859 -14.04 4.139722
v -1.418768 -14.04 4.866537
v -2.072949 -14.04 2.853168
v -2.072949 -13.79 2.853168
v -1.418768 -13.79 4.866537
v -3 -13.79 5.11698
v -3 -13.79 3
v -3 -13.54 3
v -3 -13.54 5.11698
v -4.581235 -13.54 4.866537
v -3.927053 -13.54 2.853169
v -3.927053 -13.29 2.853169
v -4.581235 -13.29 4.866537
v -6.007686 -13.29 4.139724
v -4.763356 -13.29 2.427052
v -4.763356 -13.04 2.427052
v -6.007686 -13.04 4.139724
v -7.139726 -13.04 3.007685
v -5.42705 -13.04 1.763355
v -5.42705 -12.79 1.763355
v -7.139726 -12.79 3.007685
v -7.866537 -12.79 1.581233
v -5.85317 -12.79 0.9270492
v -5.85317 -12.54 0.9270492
v -7.866537 -12.54 1.581233
v -8.11698 -12.54 -9.536743E-07
v -6.000001 -12.54 0
v -6.000001 -12.29 0
v -8.11698 -12.29 -9.536743E-07
v -7.866535 -12.29 -1.581237
v -5.85317 -12.29 -0.9270525
v -5.85317 -12.04 -0.9270525
v -7.866535 -12.04 -1.581237
v -7.139725 -12.04 -3.007685
v -5.427052 -12.04 -1.763356
v -5.427052 -11.79 -1.763356
v -7.139725 -11.79 -3.007685
v -6.007683 -11.79 -4.139722
v -4.763354 -11.79 -2.427052
v -4.763354 -11.54 -2.427052
v -6.007683 -11.54 -4.139722
v -4.581236 -11.54 -4.866535
v -3.927052 -11.54 -2.853168
v -3.927052 -11.29 -2.853168
v -4.581236 -11.29 -4.866535
v -3.000001 -11.29 -5.116978
v -3.000001 -11.29 -2.999999
v -3.000001 -11.04 -2.999999
v -3.000001 -11.04 -5.116978
v -1.418766 -11.04 -4.866536
v -2.072949 -11.04 -2.85317
v -2.072949 -10.79 -2.85317
v -1.418766 -10.79 -4.866536
v 0.007685423 -10.79 -4.139721
v -1.236645 -10.79 -2.427049
v -1.236645 -10.54 -2.427049
v 0.007685423 -10.54 -4.139721
v 1.139724 -10.54 -3.007685
v -0.5729494 -10.54 -1.763353
v -0.5729494 -10.29 -1.763353
v 1.139724 -10.29 -3.007685
v 1.866535 -10.29 -1.581232
v -0.1468294 -10.29 -0.9270526
v -0.1468294 -10.04 -0.9270526
v 1.866535 -10.04 -1.581232
v 2.116978 -10.04 1.430511E-06
v 0 -10.04 0

vt 0 0
vt -2.116979 0
vt 0 0.25
vt -2.116979 0.25
vt 0.1115518 0.1638332
vt -1.979363 -0.167335
vt -1.979363 1.433609
vt 0.1115518 1.10244
vt -0.1468306 0.25
vt -2.263809 0.25
vt -0.1468306 0.5
vt -2.263809 0.5
vt 0.5326245 1.400736
vt -1.558291 1.069568
vt -1.558291 2.670511
vt 0.5326245 2.339343
vt -0.572949 0.5
vt -2.689928 0.5
vt -0.572949 0.75
vt -2.689928 0.75
vt 1.259503 2.482236
vt -0.8314124 2.151067
vt -0.8314127 3.752011
vt 1.259502 3.420843
vt -1.236645 0.75
vt -3.353623 0.75
vt -1.236645 1
vt -3.353623 1
vt 2.21205 3.274818
vt 0.1211354 2.94365
vt 0.1211348 4.544593
vt 2.21205 4.213425
vt -2.07295 1
vt -4.189929 1
vt -2.07295 1.25
vt -4.189929 1.25
vt 3.306009 3.67325
vt 1.215094 3.342082
vt 1.215094 4.943026
vt 3.306009 4.611857
vt -3 1.25
vt -5.116979 1.25
vt -3 1.5
vt -5.116979 1.5
vt 4.887243 3.358291
vt 2.796328 3.027122
vt 2.796328 4.628066
vt 4.887243 4.296897
vt -3.927051 1.5
vt -6.044029 1.5
vt -3.927051 1.75
vt -6.044029 1.75
vt 6.146786 3.080163
vt 4.055871 2.748994
vt 4.05587 4.349937
vt 6.146786 4.018769
vt -4.763356 1.75
vt -6.880335 1.75
vt -4.763356 2
vt -6.880335 2
vt 7.162581 2.482235
vt 5.071666 2.151067
vt 5.071666 3.752011
vt 7.16258 3.420843
vt -5.427051 2
vt -7.54403 2
vt -5.427051 2.25
vt -7.54403 2.25
vt 7.826211 1.595392
vt 5.735296 1.264223
vt 5.735296 2.865168
vt 7.826211 2.533999
vt -5.85317 2.25
vt -7.970149 2.25
vt -5.85317 2.5
vt -7.970149 2.5
vt 8.081699 0.4787928
vt 5.990785 0.1476241
vt 5.990785 1.748567
vt 8.081699 1.417399
vt -6 2.5
vt -8.116979 2.5
vt -6 2.75
vt -8.116979 2.75
vt 8.0817 -1.417401
vt 5.990785 -1.748569
vt 5.990785 -0.1476251
vt 8.0817 -0.4787937
vt -5.85317 2.75
vt -7.970148 2.75
vt -5.85317 3
vt -7.970148 3
vt 7.82621 -2.533999
vt 5.735296 -2.865168
vt 5.735295 -1.264225
vt 7.826211 -1.595393
vt -5.427051 3
vt -7.54403 3
vt -5.427051 3.25
vt -7.54403 3.25
vt 7.162581 -3.420843
vt 5.071666 -3.752012
vt 5.071666 -2.151068
vt 7.162581 -2.482236
vt -4.763355 3.25
vt -6.880334 3.25
vt -4.763355 3.5
vt -6.880334 3.5
vt 6.146786 -4.018768
vt 4.05587 -4.349936
vt 4.05587 -2.748994
vt 6.146785 -3.080162
vt -3.927051 3.5
vt -6.04403 3.5
vt -3.927051 3.75
vt -6.04403 3.75
vt 4.887243 -4.296897
vt 2.796328 -4.628066
vt 2.796328 -3.027122
vt 4.887243 -3.35829
vt -3 3.75
vt -5.116979 3.75
vt -3 4
vt -5.116979 4
vt 3.306009 -4.611858
vt 1.215094 -4.943026
vt 1.215094 -3.342082
vt 3.306009 -3.67325
vt -2.072949 4
vt -4.189927 4
vt -2.072949 4.25
vt -4.189927 4.25
vt 2.212049 -4.213425
vt 0.1211343 -4.544593
vt 0.1211346 -2.943649
vt 2.212049 -3.274818
vt -1.236644 4.25
vt -3.353622 4.25
vt -1.236644 4.5
vt -3.353622 4.5
vt 1.259502 -3.420842
vt -0.8314132 -3.752011
vt -0.8314136 -2.151066
vt 1.259502 -2.482234
vt -0.5729486 4.5
vt -2.689927 4.5
vt -0.5729486 4.75
vt -2.689927 4.75
vt 0.532624 -2.339342
vt -1.558291 -2.67051
vt -1.558292 -1.069568
vt 0.5326238 -1.400736
vt -0.1468305 4.75
vt -2.263809 4.75
vt -0.1468305 5
vt -2.263809 5
vt 0.1115516 -1.10244
vt -1.979364 -1.433608
vt -1.979363 0.167336
vt 0.1115519 -0.1638328
vt 0.1627195 0.006353259
vt -1.928195 -0.3248143
vt -1.928196 1.276129
vt 0.1627202 0.9449614
vt 0.6665853 1.303409
vt -1.424331 0.9722401
vt -1.42433 2.573184
vt 0.6665846 2.242016
vt 1.425087 2.482236
vt -0.665828 2.151067
vt -0.6658291 3.75201
vt 1.425088 3.420841
vt 2.346011 3.372147
vt 0.255097 3.040977
vt 0.2550961 4.641923
vt 2.346011 4.310753
vt 3.357177 3.83073
vt 1.266263 3.499561
vt 1.266262 5.100505
vt 3.357176 4.769339
vt 4.938411 3.200811
vt 2.847497 2.869642
vt 2.847497 4.470585
vt 4.938411 4.139418
vt 6.280747 2.982835
vt 4.189831 2.651665
vt 4.18983 4.252609
vt 6.280746 3.92144
vt 7.328166 2.482236
vt 5.237251 2.151066
vt 5.237249 3.75201
vt 7.328166 3.420842
vt 7.960172 1.692721
vt 5.869255 1.361552
vt 5.869256 2.962493
vt 7.96017 2.631328
vt 8.132868 0.6362728
vt 6.041953 0.3051037
vt 6.041953 1.906048
vt 8.132868 1.574878
vt 8.132869 -1.574881
vt 6.041953 -1.906049
vt 6.041955 -0.3051049
vt 8.132869 -0.6362743
vt 7.960172 -2.631327
vt 5.869256 -2.962495
vt 5.869253 -1.361554
vt 7.960171 -1.69272
vt 7.328165 -3.420844
vt 5.23725 -3.752011
vt 5.237251 -2.151066
vt 7.328165 -2.482235
vt 6.280746 -3.92144
vt 4.189831 -4.252608
vt 4.18983 -2.651666
vt 6.280748 -2.982836
vt 4.938412 -4.139418
vt 2.847496 -4.470587
vt 2.847496 -2.869642
vt 4.938411 -3.20081
vt -3 3.75
vt -3 4
vt 3.357179 -4.769337
vt 1.266262 -5.100506
vt 1.266261 -3.499562
vt 3.357177 -3.83073
vt 2.346009 -4.310753
vt 0.255095 -4.641921
vt 0.2550955 -3.040976
vt 2.34601 -3.372145
vt 1.425086 -3.420842
vt -0.6658292 -3.752011
vt -0.6658312 -2.151068
vt 1.425086 -2.482235
vt 0.6665854 -2.242012
vt -1.424332 -2.573182
vt -1.42433 -0.9722375
vt 0.6665828 -1.303408
vt 0.1627194 -0.9449611
vt -1.928194 -1.27613
vt -1.928195 0.3248147
vt 0.1627194 -0.006352425

vn 0 0 -1
vn 0 1 0
vn 0.309017 0 -0.9510565
vn 0.5877852 0 -0.8090171
vn 0.8090171 0 -0.5877852
vn 0.9510566 0 -0.3090169
vn 1 0 0
vn 0.9510565 0 0.309017
vn 0.809017 0 0.5877853
vn 0.5877852 0 0.8090171
vn 0.3090168 0 0.9510566
vn -8.742278E-08 0 1
vn -0.3090173 0 0.9510565
vn -0.5877853 0 0.8090169
vn -0.8090171 0 0.5877851
vn -0.9510565 0 0.3090171
vn -1 0 0
vn -0.9510565 0 -0.3090171
vn -0.8090169 0 -0.5877855
vn -0.5877851 0 -0.8090172
vn -0.3090169 0 -0.9510565

usemtl ProBuilderDefault
f 3/3/1 4/4/1 2/2/1 1/1/1
f 6/8/2 5/7/2 4/6/2 3/5/2
f 7/11/3 8/12/3 5/10/3 6/9/3
f 10/16/2 9/15/2 8/14/2 7/13/2
f 11/19/4 12/20/4 9/18/4 10/17/4
f 14/24/2 13/23/2 12/22/2 11/21/2
f 15/27/5 16/28/5 13/26/5 14/25/5
f 18/32/2 17/31/2 16/30/2 15/29/2
f 19/35/6 20/36/6 17/34/6 18/33/6
f 22/40/2 21/39/2 20/38/2 19/37/2
f 23/43/7 24/44/7 21/42/7 22/41/7
f 26/48/2 25/47/2 24/46/2 23/45/2
f 27/51/8 28/52/8 25/50/8 26/49/8
f 30/56/2 29/55/2 28/54/2 27/53/2
f 31/59/9 32/60/9 29/58/9 30/57/9
f 34/64/2 33/63/2 32/62/2 31/61/2
f 35/67/10 36/68/10 33/66/10 34/65/10
f 38/72/2 37/71/2 36/70/2 35/69/2
f 39/75/11 40/76/11 37/74/11 38/73/11
f 42/80/2 41/79/2 40/78/2 39/77/2
f 43/83/12 44/84/12 41/82/12 42/81/12
f 46/88/2 45/87/2 44/86/2 43/85/2
f 47/91/13 48/92/13 45/90/13 46/89/13
f 50/96/2 49/95/2 48/94/2 47/93/2
f 51/99/14 52/100/14 49/98/14 50/97/14
f 54/104/2 53/103/2 52/102/2 51/101/2
f 55/107/15 56/108/15 53/106/15 54/105/15
f 58/112/2 57/111/2 56/110/2 55/109/2
f 59/115/16 60/116/16 57/114/16 58/113/16
f 62/120/2 61/119/2 60/118/2 59/117/2
f 63/123/17 64/124/17 61/122/17 62/121/17
f 66/128/2 65/127/2 64/126/2 63/125/2
f 67/131/18 68/132/18 65/130/18 66/129/18
f 70/136/2 69/135/2 68/134/2 67/133/2
f 71/139/19 72/140/19 69/138/19 70/137/19
f 74/144/2 73/143/2 72/142/2 71/141/2
f 75/147/20 76/148/20 73/146/20 74/145/20
f 78/152/2 77/151/2 76/150/2 75/149/2
f 79/155/21 80/156/21 77/154/21 78/153/21
f 82/160/2 81/159/2 80/158/2 79/157/2
f 85/3/1 86/4/1 84/2/1 83/1/1
f 88/164/2 87/163/2 86/162/2 85/161/2
f 89/11/3 90/12/3 87/10/3 88/9/3
f 92/168/2 91/167/2 90/166/2 89/165/2
f 93/19/4 94/20/4 91/18/4 92/17/4
f 96/172/2 95/171/2 94/170/2 93/169/2
f 97/27/5 98/28/5 95/26/5 96/25/5
f 100/176/2 99/175/2 98/174/2 97/173/2
f 101/35/6 102/36/6 99/34/6 100/33/6
f 104/180/2 103/179/2 102/178/2 101/177/2
f 105/43/7 106/44/7 103/42/7 104/41/7
f 108/184/2 107/183/2 106/182/2 105/181/2
f 109/51/8 110/52/8 107/50/8 108/49/8
f 112/188/2 111/187/2 110/186/2 109/185/2
f 113/59/9 114/60/9 111/58/9 112/57/9
f 116/192/2 115/191/2 114/190/2 113/189/2
f 117/67/10 118/68/10 115/66/10 116/65/10
f 120/196/2 119/195/2 118/194/2 117/193/2
f 121/75/11 122/76/11 119/74/11 120/73/11
f 124/200/2 123/199/2 122/198/2 121/197/2
f 125/83/12 126/84/12 123/82/12 124/81/12
f 128/204/2 127/203/2 126/202/2 125/201/2
f 129/91/13 130/92/13 127/90/13 128/89/13
f 132/208/2 131/207/2 130/206/2 129/205/2
f 133/99/14 134/100/14 131/98/14 132/97/14
f 136/212/2 135/211/2 134/210/2 133/209/2
f 137/107/15 138/108/15 135/106/15 136/105/15
f 140/216/2 139/215/2 138/214/2 137/213/2
f 141/115/16 142/116/16 139/114/16 140/113/16
f 144/220/2 143/219/2 142/218/2 141/217/2
f 145/222/17 146/124/17 143/122/17 144/221/17
f 148/226/2 147/225/2 146/224/2 145/223/2
f 149/131/18 150/132/18 147/130/18 148/129/18
f 152/230/2 151/229/2 150/228/2 149/227/2
f 153/139/19 154/140/19 151/138/19 152/137/19
f 156/234/2 155/233/2 154/232/2 153/231/2
f 157/147/20 158/148/20 155/146/20 156/145/20
f 160/238/2 159/237/2 158/236/2 157/235/2
f 161/155/21 162/156/21 159/154/21 160/153/21
f 1/242/2 2/241/2 162/240/2 161/239/2
f 165/3/1 166/4/1 164/2/1 163/1/1
f 168/164/2 167/163/2 166/162/2 165/161/2
f 169/11/3 170/12/3 167/10/3 168/9/3
f 172/168/2 171/167/2 170/166/2 169/165/2
f 173/19/4 174/20/4 171/18/4 172/17/4
f 176/172/2 175/171/2 174/170/2 173/169/2
f 177/27/5 178/28/5 175/26/5 176/25/5
f 180/176/2 179/175/2 178/174/2 177/173/2
f 181/35/6 182/36/6 179/34/6 180/33/6
f 184/180/2 183/179/2 182/178/2 181/177/2
f 185/43/7 186/44/7 183/42/7 184/41/7
f 188/184/2 187/183/2 186/182/2 185/181/2
f 189/51/8 190/52/8 187/50/8 188/49/8
f 192/188/2 191/187/2 190/186/2 189/185/2
f 193/59/9 194/60/9 191/58/9 192/57/9
f 196/192/2 195/191/2 194/190/2 193/189/2
f 197/67/10 198/68/10 195/66/10 196/65/10
f 200/196/2 199/195/2 198/194/2 197/193/2
f 201/75/11 202/76/11 199/74/11 200/73/11
f 204/200/2 203/199/2 202/198/2 201/197/2
f 205/83/12 206/84/12 203/82/12 204/81/12
f 208/204/2 207/203/2 206/202/2 205/201/2
f 209/91/13 210/92/13 207/90/13 208/89/13
f 212/208/2 211/207/2 210/206/2 209/205/2
f 213/99/14 214/100/14 211/98/14 212/97/14
f 216/212/2 215/211/2 214/210/2 213/209/2
f 217/107/15 218/108/15 215/106/15 216/105/15
f 220/216/2 219/215/2 218/214/2 217/213/2
f 221/115/16 222/116/16 219/114/16 220/113/16
f 224/220/2 223/219/2 222/218/2 221/217/2
f 225/222/17 226/124/17 223/122/17 224/221/17
f 228/226/2 227/225/2 226/224/2 225/223/2
f 229/131/18 230/132/18 227/130/18 228/129/18
f 232/230/2 231/229/2 230/228/2 229/227/2
f 233/139/19 234/140/19 231/138/19 232/137/19
f 236/234/2 235/233/2 234/232/2 233/231/2
f 237/147/20 238/148/20 235/146/20 236/145/20
f 240/238/2 239/237/2 238/236/2 237/235/2
f 241/155/21 242/156/21 239/154/21 240/153/21
f 83/242/2 84/241/2 242/240/2 241/239/2
f 245/3/1 246/4/1 244/2/1 243/1/1
f 248/164/2 247/163/2 246/162/2 245/161/2
f 249/11/3 250/12/3 247/10/3 248/9/3
f 252/168/2 251/167/2 250/166/2 249/165/2
f 253/19/4 254/20/4 251/18/4 252/17/4
f 256/172/2 255/171/2 254/170/2 253/169/2
f 257/27/5 258/28/5 255/26/5 256/25/5
f 260/176/2 259/175/2 258/174/2 257/173/2
f 261/35/6 262/36/6 259/34/6 260/33/6
f 264/180/2 263/179/2 262/178/2 261/177/2
f 265/43/7 266/44/7 263/42/7 264/41/7
f 268/184/2 267/183/2 266/182/2 265/181/2
f 269/51/8 270/52/8 267/50/8 268/49/8
f 272/188/2 271/187/2 270/186/2 269/185/2
f 273/59/9 274/60/9 271/58/9 272/57/9
f 276/192/2 275/191/2 274/190/2 273/189/2
f 277/67/10 278/68/10 275/66/10 276/65/10
f 280/196/2 279/195/2 278/194/2 277/193/2
f 281/75/11 282/76/11 279/74/11 280/73/11
f 284/200/2 283/199/2 282/198/2 281/197/2
f 285/83/12 286/84/12 283/82/12 284/81/12
f 288/204/2 287/203/2 286/202/2 285/201/2
f 289/91/13 290/92/13 287/90/13 288/89/13
f 292/208/2 291/207/2 290/206/2 289/205/2
f 293/99/14 294/100/14 291/98/14 292/97/14
f 296/212/2 295/211/2 294/210/2 293/209/2
f 297/107/15 298/108/15 295/106/15 296/105/15
f 300/216/2 299/215/2 298/214/2 297/213/2
f 301/115/16 302/116/16 299/114/16 300/113/16
f 304/220/2 303/219/2 302/218/2 301/217/2
f 305/222/17 306/124/17 303/122/17 304/221/17
f 308/226/2 307/225/2 306/224/2 305/223/2
f 309/131/18 310/132/18 307/130/18 308/129/18
f 312/230/2 311/229/2 310/228/2 309/227/2
f 313/139/19 314/140/19 311/138/19 312/137/19
f 316/234/2 315/233/2 314/232/2 313/231/2
f 317/147/20 318/148/20 315/146/20 316/145/20
f 320/238/2 319/237/2 318/236/2 317/235/2
f 321/155/21 322/156/21 319/154/21 320/153/21
f 324/242/2 323/241/2 322/240/2 321/239/2

